<?xml version="1.0" encoding="UTF-8" standalone="no"?>
<svg
   version="1.1"
   viewBox="0.0 0.0 1024.0 1024.0"
   fill="none"
   stroke="none"
   stroke-linecap="square"
   stroke-miterlimit="10"
   id="svg4"
   sodipodi:docname="logo.svg"
   inkscape:version="1.3.2 (091e20ef0f, 2023-11-25, custom)"
   xmlns:inkscape="http://www.inkscape.org/namespaces/inkscape"
   xmlns:sodipodi="http://sodipodi.sourceforge.net/DTD/sodipodi-0.dtd"
   xmlns:xlink="http://www.w3.org/1999/xlink"
   xmlns="http://www.w3.org/2000/svg"
   xmlns:svg="http://www.w3.org/2000/svg">
  <defs
     id="defs4">
    <linearGradient
       id="linearGradient4"
       inkscape:collect="always">
      <stop
         style="stop-color:#fff;stop-opacity:1;"
         offset="0.25570858"
         id="stop4" />
      <stop
         style="stop-color:#fff;stop-opacity:1;"
         offset="0.71370065"
         id="stop7" />
      <stop
         style="stop-color:#fff;stop-opacity:1;"
         offset="0.89318478"
         id="stop1" />
      <stop
         style="stop-color:#2b63f3;stop-opacity:1;"
         offset="1"
         id="stop5" />
    </linearGradient>
    <linearGradient
       inkscape:collect="always"
       xlink:href="#linearGradient4"
       id="linearGradient5"
       x1="511.99997"
       y1="-0.00117456"
       x2="511.99997"
       y2="1023.9988"
       gradientUnits="userSpaceOnUse"
       gradientTransform="matrix(1.3507818,0,0,1.3507818,-179.60025,-179.59898)" />
  </defs>
  <sodipodi:namedview
     id="namedview4"
     pagecolor="#ffffff"
     bordercolor="#666666"
     borderopacity="1.0"
     inkscape:showpageshadow="2"
     inkscape:pageopacity="0.0"
     inkscape:pagecheckerboard="0"
     inkscape:deskcolor="#d1d1d1"
     showguides="true"
     showgrid="false"
     inkscape:zoom="0.50000001"
     inkscape:cx="352.99999"
     inkscape:cy="587.99999"
     inkscape:window-width="2560"
     inkscape:window-height="1600"
     inkscape:window-x="0"
     inkscape:window-y="0"
     inkscape:window-maximized="1"
     inkscape:current-layer="svg4">
    <inkscape:grid
       id="grid7"
       units="px"
       originx="0"
       originy="0"
       spacingx="1"
       spacingy="1"
       empcolor="#0099e5"
       empopacity="0.30196078"
       color="#0099e5"
       opacity="0.14901961"
       empspacing="5"
       dotted="false"
       gridanglex="30"
       gridanglez="30"
       visible="false" />
  </sodipodi:namedview>
  <clipPath
     id="p.0">
    <path
       d="m0 0l1024.0 0l0 1024.0l-1024.0 0l0 -1024.0z"
       clip-rule="nonzero"
       id="path1" />
  </clipPath>
  <path
     id="path1-7"
     style="fill:url(#linearGradient5);fill-opacity:1;stroke-width:4.40414"
     d="m 323.34696,143.19936 c -2.28953,-0.0178 -4.62133,0.41169 -6.86999,1.34287 -8.99459,3.72473 -13.2603,14.04094 -9.5267,23.03188 l 33.70622,81.37669 c 3.71052,9.00672 14.02671,13.29325 23.02661,9.56628 8.9999,-3.72698 13.26486,-14.052 9.52144,-23.04508 L 339.4983,154.09268 c -2.7869,-6.74871 -9.28272,-10.83976 -16.15134,-10.89332 z m 377.28233,0 c -6.86823,0.0534 -13.36404,4.14525 -16.15134,10.89332 L 650.77173,235.472 c -3.725,8.98767 0.54268,19.29235 9.53198,23.01342 8.98883,3.73373 19.30099,-0.53806 23.01605,-9.53462 l 33.70622,-81.37669 c 3.73266,-8.99068 -0.5353,-19.30472 -9.52933,-23.02925 -2.24851,-0.93113 -4.57795,-1.36329 -6.86736,-1.3455 z M 511.9868,334.72808 c -84.00471,0 -163.63025,37.46913 -217.17774,102.19508 -53.5475,64.72596 -75.43434,149.96238 -59.69558,232.47958 H 18.72192 c -9.7200639,0.0135 -17.59446,7.8955 -17.59446,17.61557 0,9.72006 7.8743961,17.6047 17.59446,17.6182 h 747.96113 l 0.066,0.005 0.0501,-0.005 h 238.45515 c 9.7292,-5.2e-4 17.6178,-7.88905 17.6182,-17.6182 -4e-4,-9.72922 -7.889,-17.61511 -17.6182,-17.61557 H 788.86278 C 804.60153,586.88554 782.71469,501.64912 729.16719,436.92316 675.6197,372.19721 595.99154,334.72808 511.9868,334.72808 Z m 54.85705,69.96363 c 1.63544,0.0348 3.28888,0.38892 4.87548,1.10016 5.81751,2.60785 8.68934,9.08808 6.93594,15.038 l -0.5936,1.60669 -109.13894,243.46259 c -2.84496,6.34637 -10.29569,9.18462 -16.64206,6.3397 -5.8175,-2.60785 -8.68934,-9.08807 -6.93594,-15.038 l 0.5936,-1.60668 109.13894,-243.46259 c 2.13372,-4.75979 6.86026,-7.54425 11.76658,-7.43987 z m -510.693131,5.48492 c -6.859837,0.0566 -13.347858,4.14162 -16.138155,10.8775 -3.72039,8.98116 0.536558,19.27765 9.513516,23.00813 l 81.37932,33.70887 c 8.98501,3.70879 19.2749,-0.56221 22.99496,-9.54254 3.72003,-8.98033 -0.53521,-19.27686 -9.51087,-23.00814 L 63.010151,411.51423 c -2.246336,-0.92757 -4.572828,-1.35646 -6.859432,-1.3376 z m 911.674811,0.003 c -2.28609,-0.0195 -4.61332,0.40839 -6.85943,1.33496 l -81.37932,33.70622 c -7.76438,3.2186 -12.17303,11.47235 -10.53188,19.71561 1.64114,8.24326 8.87547,14.18111 17.28051,14.18057 2.31194,3.5e-4 4.60126,-0.45647 6.73544,-1.3455 l 81.37932,-33.70887 c 8.97353,-3.73264 13.22771,-14.02654 9.50824,-23.0055 -2.78958,-6.73424 -9.27452,-10.81918 -16.13288,-10.87749 z m -539.77715,44.88448 c 3.22281,0 6.44516,1.22934 8.90409,3.68826 4.47073,4.47074 4.87675,11.4668 1.21886,16.3967 l -1.21886,1.41146 -62.4552,62.45519 62.4552,62.45519 c 4.91782,4.91781 4.91782,12.89035 0,17.80816 -4.47075,4.47076 -11.46682,4.87939 -16.39671,1.22151 l -1.41409,-1.22151 -71.35928,-71.35927 c -4.47075,-4.47075 -4.87674,-11.46682 -1.21886,-16.3967 l 1.21886,-1.41146 71.35928,-71.35927 c 2.45891,-2.45892 5.68391,-3.68826 8.90671,-3.68826 z m 167.0247,0.029 c 2.92408,-0.20321 5.9062,0.6088 8.37116,2.43774 l 1.41409,1.22151 71.35928,71.35927 c 4.47074,4.47075 4.87674,11.46683 1.21886,16.39671 l -1.21886,1.41145 -71.35928,71.35927 c -4.91781,4.91782 -12.89298,4.91782 -17.8108,0 -4.47075,-4.47077 -4.87673,-11.46679 -1.21886,-16.3967 l 1.21886,-1.41146 62.4552,-62.45519 -62.4552,-62.45519 c -4.9178,-4.91782 -4.9178,-12.89034 0,-17.80816 2.23538,-2.23538 5.10147,-3.45602 8.02555,-3.65925 z m -435.41871,390.4762 c -9.72943,0 -17.61557,7.88881 -17.61557,17.6182 0,9.7294 7.88614,17.61558 17.61557,17.61558 h 704.66751 c 9.72944,0 17.61557,-7.88618 17.61557,-17.61558 0,-9.72939 -7.88613,-17.6182 -17.61557,-17.6182 z" />
  <!-- Uploaded to: SVG Repo, www.svgrepo.com, Generator: SVG Repo Mixer Tools -->
  <title
     id="title1">ic_fluent_code_24_regular</title>
  <desc
     id="desc1">Created with Sketch.</desc>
  <!-- Uploaded to: SVG Repo, www.svgrepo.com, Generator: SVG Repo Mixer Tools -->
  <title
     id="title1-5">ic_fluent_code_24_regular</title>
  <desc
     id="desc1-3">Created with Sketch.</desc>
</svg>
