<?xml version="1.0" encoding="UTF-8" standalone="no"?>
<svg
   version="1.1"
   viewBox="0.0 0.0 1024.0 1024.0"
   fill="none"
   stroke="none"
   stroke-linecap="square"
   stroke-miterlimit="10"
   id="svg4"
   sodipodi:docname="logo.svg"
   inkscape:version="1.3.2 (091e20ef0f, 2023-11-25, custom)"
   xmlns:inkscape="http://www.inkscape.org/namespaces/inkscape"
   xmlns:sodipodi="http://sodipodi.sourceforge.net/DTD/sodipodi-0.dtd"
   xmlns:xlink="http://www.w3.org/1999/xlink"
   xmlns="http://www.w3.org/2000/svg"
   xmlns:svg="http://www.w3.org/2000/svg">
  <defs
     id="defs4">
    <linearGradient
       id="linearGradient4"
       inkscape:collect="always">
      <stop
         style="stop-color:#ffba08;stop-opacity:1;"
         offset="0"
         id="stop4" />
      <stop
         style="stop-color:#cf6f6f;stop-opacity:1;"
         offset="0.5"
         id="stop7" />
      <stop
         style="stop-color:#2b63f3;stop-opacity:1;"
         offset="1"
         id="stop5" />
    </linearGradient>
    <linearGradient
       inkscape:collect="always"
       xlink:href="#linearGradient4"
       id="linearGradient5"
       x1="511.99997"
       y1="-0.00117456"
       x2="511.99997"
       y2="1023.9988"
       gradientUnits="userSpaceOnUse"
       gradientTransform="translate(2e-5,0.0011717)" />
  </defs>
  <sodipodi:namedview
     id="namedview4"
     pagecolor="#ffffff"
     bordercolor="#666666"
     borderopacity="1.0"
     inkscape:showpageshadow="2"
     inkscape:pageopacity="0.0"
     inkscape:pagecheckerboard="0"
     inkscape:deskcolor="#d1d1d1"
     showguides="true"
     showgrid="false"
     inkscape:zoom="0.50000001"
     inkscape:cx="351.99999"
     inkscape:cy="587.99998"
     inkscape:window-width="1920"
     inkscape:window-height="1080"
     inkscape:window-x="0"
     inkscape:window-y="0"
     inkscape:window-maximized="1"
     inkscape:current-layer="svg4">
    <inkscape:grid
       id="grid7"
       units="px"
       originx="0"
       originy="0"
       spacingx="1"
       spacingy="1"
       empcolor="#0099e5"
       empopacity="0.30196078"
       color="#0099e5"
       opacity="0.14901961"
       empspacing="5"
       dotted="false"
       gridanglex="30"
       gridanglez="30"
       visible="false" />
  </sodipodi:namedview>
  <clipPath
     id="p.0">
    <path
       d="m0 0l1024.0 0l0 1024.0l-1024.0 0l0 -1024.0z"
       clip-rule="nonzero"
       id="path1" />
  </clipPath>
  <path
     id="path1-7"
     style="fill:url(#linearGradient5);fill-opacity:1;stroke-width:3.26044"
     d="M 372.33789 238.97266 C 370.64292 238.95946 368.91666 239.27744 367.25195 239.9668 C 360.59315 242.72426 357.43519 250.36148 360.19922 257.01758 L 385.15234 317.26172 C 387.89928 323.9295 395.53648 327.10287 402.19922 324.34375 C 408.86195 321.58462 412.01935 313.94089 409.24805 307.2832 L 384.29492 247.03711 C 382.23174 242.04096 377.42281 239.01231 372.33789 238.97266 z M 651.64453 238.97266 C 646.5599 239.01216 641.75097 242.04144 639.6875 247.03711 L 614.73438 307.2832 C 611.97672 313.93688 615.13613 321.56556 621.79102 324.32031 C 628.44556 327.08444 636.07977 323.92198 638.83008 317.26172 L 663.7832 257.01758 C 666.54653 250.36167 663.38691 242.72606 656.72852 239.96875 C 655.06392 239.27942 653.33941 238.95949 651.64453 238.97266 z M 511.99023 380.76367 C 449.80053 380.76367 390.85279 408.50252 351.21094 456.41992 C 311.56908 504.33732 295.36599 567.43887 307.01758 628.52734 L 146.82031 628.52734 C 139.62443 628.53734 133.79492 634.37248 133.79492 641.56836 C 133.79492 648.76424 139.62443 654.60133 146.82031 654.61133 L 700.54492 654.61133 L 700.59375 654.61523 L 700.63086 654.61133 L 877.16211 654.61133 C 884.36472 654.61094 890.20472 648.77097 890.20508 641.56836 C 890.20472 634.3657 884.36476 628.52768 877.16211 628.52734 L 716.96484 628.52734 C 728.61643 567.43887 712.41334 504.33732 672.77148 456.41992 C 633.12963 408.50252 574.17995 380.76367 511.99023 380.76367 z M 552.60156 432.55859 C 553.8123 432.58435 555.03636 432.84651 556.21094 433.37305 C 560.51771 435.30367 562.64376 440.10106 561.3457 444.50586 L 560.90625 445.69531 L 480.10938 625.93359 C 478.00322 630.63189 472.48736 632.73308 467.78906 630.62695 C 463.4823 628.69633 461.35624 623.89894 462.6543 619.49414 L 463.09375 618.30469 L 543.89062 438.06641 C 545.47024 434.54268 548.96935 432.48131 552.60156 432.55859 z M 174.5293 436.61914 C 169.45088 436.66104 164.64772 439.68523 162.58203 444.67188 C 159.82778 451.32074 162.97925 458.94336 169.625 461.70508 L 229.87109 486.66016 C 236.5228 489.40582 244.14053 486.24395 246.89453 479.5957 C 249.64852 472.94746 246.49831 465.32481 239.85352 462.5625 L 179.60742 437.60938 C 177.94443 436.92269 176.2221 436.60518 174.5293 436.61914 z M 849.45312 436.62109 C 847.7607 436.60669 846.03782 436.92343 844.375 437.60938 L 784.12891 462.5625 C 778.38085 464.94527 775.11707 471.05562 776.33203 477.1582 C 777.54699 483.26079 782.90265 487.65665 789.125 487.65625 C 790.83656 487.65651 792.53137 487.31832 794.11133 486.66016 L 854.35742 461.70508 C 861.00063 458.94176 864.15005 451.32106 861.39648 444.67383 C 859.33132 439.68839 854.53044 436.66426 849.45312 436.62109 z M 449.84961 469.84961 C 452.23549 469.84961 454.62104 470.75971 456.44141 472.58008 C 459.75115 475.88982 460.05173 481.06909 457.34375 484.71875 L 456.44141 485.76367 L 410.20508 532 L 456.44141 578.23633 C 460.08213 581.87704 460.08213 587.77921 456.44141 591.41992 C 453.13166 594.72968 447.95239 595.03219 444.30273 592.32422 L 443.25586 591.41992 L 390.42773 538.5918 C 387.11798 535.28205 386.81742 530.10277 389.52539 526.45312 L 390.42773 525.4082 L 443.25586 472.58008 C 445.07622 470.75971 447.46373 469.84961 449.84961 469.84961 z M 573.5 469.87109 C 575.66473 469.72065 577.87243 470.32179 579.69727 471.67578 L 580.74414 472.58008 L 633.57227 525.4082 C 636.88201 528.71795 637.18258 533.89723 634.47461 537.54688 L 633.57227 538.5918 L 580.74414 591.41992 C 577.10342 595.06064 571.19931 595.06064 567.55859 591.41992 C 564.24884 588.11016 563.94829 582.93092 566.65625 579.28125 L 567.55859 578.23633 L 613.79492 532 L 567.55859 485.76367 C 563.91788 482.12295 563.91788 476.2208 567.55859 472.58008 C 569.21347 470.9252 571.33527 470.02154 573.5 469.87109 z M 251.1543 758.94531 C 243.95148 758.94531 238.11328 764.78549 238.11328 771.98828 C 238.11328 779.19107 243.95148 785.0293 251.1543 785.0293 L 772.82812 785.0293 C 780.03094 785.0293 785.86914 779.19107 785.86914 771.98828 C 785.86914 764.78549 780.03094 758.94531 772.82812 758.94531 L 251.1543 758.94531 z " />
  <!-- Uploaded to: SVG Repo, www.svgrepo.com, Generator: SVG Repo Mixer Tools -->
  <title
     id="title1">ic_fluent_code_24_regular</title>
  <desc
     id="desc1">Created with Sketch.</desc>
  <!-- Uploaded to: SVG Repo, www.svgrepo.com, Generator: SVG Repo Mixer Tools -->
  <title
     id="title1-5">ic_fluent_code_24_regular</title>
  <desc
     id="desc1-3">Created with Sketch.</desc>
</svg>
