<?xml version="1.0" standalone="no"?>
<!DOCTYPE svg PUBLIC "-//W3C//DTD SVG 1.1//EN" "http://www.w3.org/Graphics/SVG/1.1/DTD/svg11.dtd">
<svg xmlns="http://www.w3.org/2000/svg" width="543" height="631" viewBox="0 0 543 631" fill="none">
<path d="M242.681 416.573C184.846 376.422 136.336 366.081 97.8619 370.218C119.875 284.13 200.297 225.747 287.612 235.426C377.059 245.341 443.789 323.337 443.314 415.013C421.724 432.568 394.458 446.958 363.2 451.131C329.214 455.667 288.538 448.408 242.681 416.573Z" stroke="white" stroke-width="40"/>
<path d="M20.5789 423.002C20.5789 423.002 89.8946 324.851 231.276 423.002C372.657 521.153 482.079 411 506.079 360" stroke="white" stroke-width="40" stroke-linecap="round"/>
<path d="M31.5789 523.002C31.5789 523.002 88.816 426.423 231.276 523.002C361.079 611 501.579 516 522.079 465" stroke="white" stroke-width="40" stroke-linecap="round"/>
<path d="M425.079 235.546L439.295 249.614L445.079 243.769V235.546H425.079ZM445.079 179C445.079 167.954 436.125 159 425.079 159C414.033 159 405.079 167.954 405.079 179H445.079ZM396.295 293.068L439.295 249.614L410.863 221.478L367.863 264.932L396.295 293.068ZM445.079 235.546V179H405.079V235.546H445.079Z" fill="white"/>
<path d="M128.079 234.546L113.863 248.614L108.079 242.769V234.546H128.079ZM108.079 178C108.079 166.954 117.033 158 128.079 158C139.125 158 148.079 166.954 148.079 178H108.079ZM156.863 292.068L113.863 248.614L142.295 220.478L185.295 263.932L156.863 292.068ZM108.079 234.546V178H148.079V234.546H108.079Z" fill="white"/>
<path d="M268.079 235V107" stroke="white" stroke-width="40" stroke-linecap="round"/>
<rect x="228.079" y="20" width="80" height="80" rx="40" stroke="white" stroke-width="40"/>
<rect x="385.079" y="98" width="80" height="80" rx="40" stroke="white" stroke-width="40"/>
<rect x="88.0789" y="93" width="80" height="80" rx="40" stroke="white" stroke-width="40"/>
</svg>